<?xml version="1.0" encoding="UTF-8"?>
<svg id="Layer_1" data-name="Layer 1" xmlns="http://www.w3.org/2000/svg" viewBox="0 0 384 384">
  <defs>
    <style>
      .cls-1 {
        fill: #fff;
      }
    </style>
  </defs>
  <path class="cls-1" d="M0,50.15V0h384v384h-50.15c27.14-2.23,48.35-23.92,49.4-51.28V52.03c-1.69-25.58-17.95-45.31-43.22-50.35C241.26.13,141.99.13,43.23,1.69,19.2,6.12,2.13,25.95,0,50.15Z"/>
  <path class="cls-1" d="M49.4,384H0v-49.4c.98,4.25,1.36,8.52,2.61,12.73,4.64,15.59,18.45,29.42,34.06,34.06,4.22,1.25,8.48,1.64,12.73,2.61Z"/>
  <path class="cls-1" d="M204.35,169.92c10.1-13.02,23.56-19.72,40.06-20.95,89.8-6.69,61.33,101.42,66.25,156.83-.49,4.12-3.13,6.02-7.09,6.38-8.82.81-30.43,1.05-38.99,0-4.47-.55-5.99-4.63-6.36-8.61-2.42-25.85,1.99-55.47.06-81.65-.97-13.17-6.83-27-21.44-28.71s-23.31,4.3-28.63,16.87c-9.67,22.81-.71,68.76-3.83,94.98-.43,3.59-2.68,6.63-6.35,7.13-7.76,1.05-29.36.75-37.5,0-4.24-.39-7.02-2.64-7.11-7.11l.22-148.81c1.23-3.11,3.76-4.55,6.99-4.99,7.58-1.02,27.29-.83,35.14-.09,2.71.25,8.58,2.61,8.58,5.64v13.1Z"/>
  <path class="cls-1" d="M86.63,151.38c5.19-1.06,30.74-.88,36.44-.11,4.01.54,6.64,2.55,7.75,6.47l.2,145.82c.06,3.86-2.18,7.07-5.8,8.42l-39.48.12c-2.26-.41-5.2-3.35-5.61-5.61l-.05-148.19c0-3.24,3.64-6.33,6.55-6.92Z"/>
  <path class="cls-1" d="M99.37,72.8c49.39-6.68,51.12,65.88,5.8,65.74-40.3-.13-43.41-60.65-5.8-65.74Z"/>
</svg>